<svg id="Layer_1" data-name="Layer 1" xmlns="http://www.w3.org/2000/svg" viewBox="0 0 947 595.77"><defs><style>.cls-1{fill:#252324;}.cls-2{fill:#fff;}.cls-3{fill:#403330;}.cls-4{fill:#f2f2f2;}.cls-5{fill:#9c7e78;}.cls-6{fill:none;stroke:#000;stroke-miterlimit:10;stroke-width:3px;}.cls-7{fill:#1a3500;}.cls-8{fill:#120f0d;}.cls-9{fill:#fffeff;}.cls-10{fill:#fffefe;}.cls-11{fill:#1f1a15;}.cls-12{fill:#3d312d;}.cls-13{fill:#26bfbf;}</style></defs><path class="cls-1" d="M298.9,307.16a21.71,21.71,0,0,1,12.85-1.29,22.42,22.42,0,0,1,10.63,6c4.82,4.34,7,9.14,9.75,15.43,2.56,5.84,1.54,5.39,4.43,12,3,6.86,7.06,14.09,7.09,14.14a27.59,27.59,0,0,1,5.76-3.85c1.3-.66,4.59-2.18,11.07-3,4.78-.61,9.24-.27,18.17.42s11.1,1.39,12.85,3c1.28,1.2,2.21,2.72,3.54,2.57s2.15-2.11,3.54-5.14c2.66-5.76,2.25-3.49,4.43-8.57,3.69-8.59,2.65-10,5.32-15.85,1.92-4.22,4.5-9.9,10.63-13.71a21.26,21.26,0,0,1,13.29-3.43c1.37.13,8.27.91,12.85,6.43,2.67,3.21,3.24,6.43,4,10.71.92,5.22.46,9.48-.44,18-1.25,11.75-2.44,9.57-2.22,14.56.1,2.17.45,5.29-1.33,6.43s-4.57-.26-4.87.43c-.21.46,1,1.15,2.21,2.57a12,12,0,0,1,2.22,4.71c.75,2.5,2.28,7.52,0,12.43a18.47,18.47,0,0,1-4.43,5.57c-2.54,2.45-3.13,2.06-5.32,4.28-3.29,3.34-3,5.29-5.31,6-2.45.76-4.37-1-5.32,0s.57,2.43.44,5.14c-.12,2.53-1.47,3.51-2.66,6-.9,1.91-.63,2.43-1.32,9.43-.81,8.12-1.51,10.77-2.22,12.85-1.43,4.16-2.69,5.37-3.54,6-1.94,1.43-3.34,1.06-4.43,2.57-1.33,1.83-.9,4.62,0,6.43,1.28,2.58,3.14,2.43,4,4.71s-.26,4.69-.88,6c-1.92,4-5.62,5.89-7.53,6.86s-7.05,3.55-12.85,2.14c-3.9-.95-4-2.74-9.75-6-4.14-2.35-8-4.56-12.85-4.71s-8.59,1.89-16.39,6c-7.3,3.84-7.23,4.93-10.63,5.57-5.68,1.08-12.88-.62-16.84-5.57-.54-.67-4.22-5.41-2.66-9.42.84-2.15,2.38-2.05,3.55-4.71,1-2.33,1.36-5.87-.44-8.15-1.38-1.74-2.64-1-4.44-3-1.6-1.78-1-2.78-2.65-5.57-1.54-2.55-2.57-2.55-3.55-4.29-1.3-2.3,0-3.44,0-8.57a23.61,23.61,0,0,0-.88-7.71c-1.1-3.44-2.55-4.57-2.22-7.29.22-1.79,1-2.72.44-3.42-.84-1-2.94.5-5.31-.43-.54-.21-1.17-.58-4-4.71s-2.48-4.17-3.54-5.15c-2.34-2.13-3.7-1.49-5.32-3.42-1.21-1.45-1.42-3-1.77-5.57a18.8,18.8,0,0,1,.44-8.57c1.28-4.1,3.5-5.49,2.66-7.29-.62-1.33-2.06-1-3.55-2.57-1.83-1.9-1.76-4.56-1.77-6.42,0-4.31-1-8.56-1.33-12.86-.88-12-4.12-12.24-3.1-19.71a18.84,18.84,0,0,1,4.88-11.14A17.88,17.88,0,0,1,298.9,307.16Z"/><path class="cls-2" d="M343.58,357.43c.38-1.06,1.66-1.81,4.24-3.29a34.35,34.35,0,0,1,6.35-2.89,36.39,36.39,0,0,1,5.08-1.23,51.15,51.15,0,0,1,8.89-.83c2.95,0,2.52.23,9.73.83,7.67.63,10.39.53,11.86,2.47a6,6,0,0,0,2.11,2.06c.22.11,2.19,1.17,3.39.41a4.42,4.42,0,0,0,1.27-1.65s.32-.95.42-1.23a13.86,13.86,0,0,1,1.27-2.47c.76-1.29.85-1.34,1.27-2.06l.15-.26-.15.26,3.39-6.18c.56-1.57,1-2.85,1.27-3.71.83-2.55,1.08-3.55,2-6.25.19-.56.51-1.54,1-2.81,2.15-5.91,3.11-6.93,4.12-7.52a5.76,5.76,0,0,1,2.23-.71c6.34-.86,11.82,7.44,12.48,8.44,2.32,3.47,2.77,6.1,4.24,23.47,1.1,13,1.46,19.06,1.27,25.53,0,.71.73,7.29-.85,11.53-.26.72-.62,1.44-1.11,2.66a20.66,20.66,0,0,0-.79,2.08c-.39,1.32-.27,1.62-.63,2-.55.56-1.34.4-2.66.43-2.08.06-3.66.1-4.33.88-1.12,1.3,1.42,3.38.42,6.59a28.16,28.16,0,0,1-1.27,2.89,18.87,18.87,0,0,0-1.27,2.88,14.63,14.63,0,0,0-.42,2.88c-.18,1.62-.26,2.43-.43,4.12-.33,3.37-.31,2.78-.42,4.12-.17,2.1-.15,2.86-.42,4.53-.1.54-.21,1.21-.43,2.05a13.26,13.26,0,0,1-2.11,4.95c-.76,1-2.1,2.72-3.6,2.67-2.08-.06-3.06-3.54-4.66-6.17-3.62-6-9.58-8.52-14.39-10.71-7.84-3.57-15.17-3.4-19.9-3.29-10,.22-17.41,3-18.21,1.23-.3-.69.71-1.32,2.12-3.71a24.28,24.28,0,0,0,3-9.06,33.74,33.74,0,0,0,0-10.7,50.7,50.7,0,0,0-4.23-14.41,71.9,71.9,0,0,0-8-14C344.92,361.85,342.83,359.55,343.58,357.43Z"/><path class="cls-3" d="M291.37,316.16a15.8,15.8,0,0,1,4.87-6,17.54,17.54,0,0,1,12-3A19.83,19.83,0,0,1,321.05,314a38,38,0,0,1,3.55,5.14,49.18,49.18,0,0,1,3.1,6c2,4.92,1.89,9.25,1.77,14.14-.16,6.56-.24,9.84-2.21,12.43-1.15,1.5-2.73,2.73-4.88,6a16.32,16.32,0,0,0-2.21,3.85,8.08,8.08,0,0,0,.44,5.14c1,2.34,2.31,2.59,2.21,3.86-.11,1.54-2.16,1.95-4.43,3.86a16.85,16.85,0,0,0-4.87,7.28c-1.48,4.09-.12,5.72-2.21,9.43-.57,1-1.76,3.1-3.11,3s-1.28-2.66-4-5.15c-1.6-1.46-2.28-1.16-4.43-3a13.91,13.91,0,0,1-3.1-3.42,12.25,12.25,0,0,1,0-11.57,17.87,17.87,0,0,0,2.65-6,3.65,3.65,0,0,0,0-1.71c-.48-1.92-2.49-2.68-3.54-3.43-2.45-1.74-1.32-4.51-2.66-14.14-.72-5.21-1.09-7.81-2-10.43a36.53,36.53,0,0,1-1.27-5.13,24.81,24.81,0,0,1-.3-3.29C289.37,320.43,290.84,317.21,291.37,316.16Z"/><path class="cls-3" d="M446.18,316.64a16,16,0,0,0-4.87-6c-4.78-3.52-10.27-3.12-12-3A21.73,21.73,0,0,0,415.86,314a20.71,20.71,0,0,0-4,5.14,20.47,20.47,0,0,0-2,6.49c-2.25,12.75-3,11.71-2.85,15.37.08,1.67.4,8.15,3.29,11.2.27.28,1.62,1.69,3.23,3.72.51.64,1.06,1.38,1.65,2.27a36.05,36.05,0,0,1,2.21,3.86,6.38,6.38,0,0,1,.45,5.14c-.93,2.1-3.1,2.44-3.11,3.86s2.09,1.88,4.43,3.85A16.82,16.82,0,0,1,424,382.2c.8,2.23.51,2.49,2.21,9.42.78,3.18,1.17,4.4,1.81,4.44,1.31.1,3.3-4.82,5.28-6.58a10.74,10.74,0,0,1,.9-.72,20.67,20.67,0,0,0,3.53-2.28,15.76,15.76,0,0,0,3.1-3.42,13.09,13.09,0,0,0,1.14-11.2c-.91-2.41-2.09-3-2.66-6-.25-1.32-.55-3.07.45-4.29s2.4-.68,3.54-1.71c1.58-1.42.54-4,.44-7.29-.12-4.16,1.4-3.47,2.66-10.71.2-1.14.54-4.5,1.22-11.21.19-1.93.29-2.9.3-3.29C448.18,320.92,446.7,317.7,446.18,316.64Z"/><path class="cls-4" d="M327.7,347.43a16.5,16.5,0,0,0,0-7.28,14.07,14.07,0,0,0-4.43-7.71c-1.33-1.14-3.75-3.22-7.09-3-4.33.27-6.74,4.15-7.09,4.71-1.83,3-1.54,6-1.33,8.14.13,1.33.83,3.48,2.22,7.71,1.68,5.15,2,5.56,2.21,7.29a27.07,27.07,0,0,1,0,6.85,47.56,47.56,0,0,1-1.33,7.72c-.93,3.6-1.36,3.55-1.33,5.14s0,4.25,1.78,6.43a7.37,7.37,0,0,0,1.32,1.28,17.57,17.57,0,0,1,2.22-6c1.2-2,2-3.26,3.54-4.28s3.32-1.61,4.3-3.48a1.55,1.55,0,0,0,.13-.38c.42-1.83-2-2.35-2.65-5.57a9.13,9.13,0,0,1,.88-5.57,13.11,13.11,0,0,1,2.22-3A21.46,21.46,0,0,0,327.7,347.43Z"/><path class="cls-4" d="M410.86,347.45a16.1,16.1,0,0,1,0-7.29,14.07,14.07,0,0,1,4.43-7.71c1.33-1.14,3.75-3.21,7.09-3,4.33.28,6.74,4.16,7.09,4.72,1.83,2.94,1.54,6,1.33,8.14-.13,1.33-.83,3.47-2.22,7.71-1.68,5.15-2,5.55-2.21,7.28a27.62,27.62,0,0,0,0,6.86,47.16,47.16,0,0,0,1.33,7.71c.93,3.6,1.36,3.55,1.33,5.14s0,4.25-1.78,6.43a7,7,0,0,1-1.32,1.28,17.5,17.5,0,0,0-2.22-6c-1.2-2-2-3.27-3.54-4.29a17.89,17.89,0,0,1-4.3-3.48.63.63,0,0,1-.12-.18c-.55-1.14,1.92-2.46,2.66-4.71.42-1.26.12-2.32-.44-4.28a20,20,0,0,0-2.68-5.34c-.66-1.06-.78-1.13-1.31-1.95A21.61,21.61,0,0,1,410.86,347.45Z"/><path class="cls-1" d="M349.63,460.05c.3,1.08,2.12.78,4.9,3.47,1.43,1.38,1.15,1.66,2.22,2.48,2.5,1.89,5.62,1.62,7.13,1.48s1.63-.36,3.56-.49a26.27,26.27,0,0,1,3.57,0c2.13.13,2.35.36,4,.49,2.19.18,3.95.32,5.79-.49a23.48,23.48,0,0,0,4-3c3.58-2.94,3.74-3.37,3.79-3.71.36-2.64-5.1-5.59-6.68-6.45-4.09-2.21-10.06-5.44-17.82-4C355.82,451.46,349,457.75,349.63,460.05Z"/><path class="cls-4" d="M350.42,458.89c.3.94,2.11.68,4.87,3,1.43,1.2,1.15,1.44,2.22,2.14,2.48,1.64,5.59,1.4,7.09,1.29s1.61-.32,3.54-.43a32.43,32.43,0,0,1,3.55,0c2.12.11,2.34.31,4,.43a12.89,12.89,0,0,0,5.76-.43,23.37,23.37,0,0,0,4-2.57c3.56-2.55,3.72-2.92,3.77-3.21.36-2.28-5.07-4.83-6.65-5.57-4.06-1.91-10-4.71-17.72-3.43C356.58,451.47,349.79,456.91,350.42,458.89Z"/><path class="cls-4" d="M361.37,456.69a5.35,5.35,0,0,0,3.1,2.57,9.75,9.75,0,0,0,4,.43,22.58,22.58,0,0,0,4-.43,20.22,20.22,0,0,0,4.44-1.28c2.83-1.29,6.36-4.28,5.75-6-.26-.75-1.21-1-9.74-1.72-6.54-.56-7.91-.6-9.31.43C361.81,452,360.51,454.65,361.37,456.69Z"/><path class="cls-5" d="M396.37,407.85c-.38-.08-1.15,1-2.93,6.35l-.17,1.79,2.76.65c3.13,1.23,3.94,1.2,4.11.94s-.32-.72-1.11-2A26.65,26.65,0,0,1,397.7,413C396.37,410.12,396.87,408,396.37,407.85Z"/><path class="cls-6" d="M393.49,415.77c-.54-.87.08-2.15,1.33-4.71a28.62,28.62,0,0,1,3.54-5.57c1.62-2,2.42-3,4-3.86a10.36,10.36,0,0,1,4.43-1.28,10.15,10.15,0,0,1,4.43.86c1.81.71,3.74,1.29,4,2.57.12.62-.27.78-.22,1.92s.36,1.2.44,2.15-.24,1.29-.44,2.57c-.25,1.57.12,1.87,0,3a7,7,0,0,1-2.66,4.28,8.51,8.51,0,0,1-5.32,1.71,22.35,22.35,0,0,1-3.54-.85c-3-.84-3-.93-4.43-1.29C395.08,416.26,394,416.67,393.49,415.77Z"/><path class="cls-7" d="M415.64,409.13a9,9,0,1,1-9-8.78,12,12,0,0,1,2.67.39c1.92.44,5.17,1.18,5.85,3.17.22.66-.09.74.05,2.61C415.34,407.9,415.64,408.82,415.64,409.13Z"/><ellipse class="cls-8" cx="405.78" cy="408.38" rx="7.64" ry="7.39"/><ellipse class="cls-9" cx="399.55" cy="409.35" rx="1.47" ry="1.29"/><ellipse class="cls-9" cx="412.29" cy="407.71" rx="1.47" ry="1.29"/><path class="cls-5" d="M345.13,407.26c.37-.08,1.15,1,2.92,6.35l.18,1.79-2.76.65c-3.14,1.24-4,1.2-4.11.94s.32-.72,1.11-2c0,0,.58-1,1.33-2.57C345.12,409.53,344.62,407.36,345.13,407.26Z"/><path class="cls-6" d="M348,415.18c.53-.87-.09-2.15-1.33-4.71a29,29,0,0,0-3.55-5.57c-1.61-2-2.42-3-4-3.86a10.32,10.32,0,0,0-4.43-1.28,10.19,10.19,0,0,0-4.43.86c-1.81.72-3.74,1.29-4,2.57-.12.62.26.78.22,1.93s-.36,1.19-.44,2.14.24,1.29.44,2.57c.25,1.57-.13,1.87,0,3a6.88,6.88,0,0,0,2.66,4.28,8.51,8.51,0,0,0,5.31,1.72A22.92,22.92,0,0,0,338,418c3-.84,3-.92,4.43-1.29C346.42,415.67,347.46,416.08,348,415.18Z"/><path class="cls-7" d="M325.85,408.54a9,9,0,1,0,9-8.78,11.88,11.88,0,0,0-2.67.39c-1.92.44-5.18,1.18-5.85,3.17-.23.67.09.74-.05,2.61C326.15,407.32,325.85,408.23,325.85,408.54Z"/><ellipse class="cls-8" cx="335.71" cy="407.79" rx="7.64" ry="7.39"/><ellipse class="cls-9" cx="341.94" cy="408.76" rx="1.47" ry="1.29"/><ellipse class="cls-9" cx="329.2" cy="407.12" rx="1.47" ry="1.29"/><path class="cls-1" d="M329.33,438.54a28,28,0,0,1,3.78-7.08,31,31,0,0,1,8-7.5,36,36,0,0,1,11.34-4.58,56.53,56.53,0,0,1,7.76-1.45,64.32,64.32,0,0,1,15.54-.42,52.88,52.88,0,0,1,15.53,3.75c3.55,1.47,6.49,2.68,9.65,5.41,5,4.29,7,9.27,8.4,12.91,2.05,5.27,3.73,9.59,2.1,14.57a15.85,15.85,0,0,1-5.46,7.5,16.48,16.48,0,0,1-7.56,2.91,18.09,18.09,0,0,1-9.65-1.66c-2.58-1.13-2.27-1.63-7.14-4.17a53.25,53.25,0,0,0-5.45-2.5,20.33,20.33,0,0,0-5.88-1.66,16.16,16.16,0,0,0-5,.41c-2.93.69-4,1.71-9.65,5-3.68,2.16-5.55,3.25-7.14,3.75a19.91,19.91,0,0,1-8.4.83,15.2,15.2,0,0,1-7.13-2.5,13,13,0,0,1-5-6.24c-.67-1.89-.45-4.2,0-8.75C328.26,443.05,328.46,441,329.33,438.54Z"/><path class="cls-10" d="M331.08,437.65a27.07,27.07,0,0,1,3.66-6.84,29.84,29.84,0,0,1,7.73-7.23,34.55,34.55,0,0,1,11-4.42,53.59,53.59,0,0,1,7.52-1.41,62.5,62.5,0,0,1,15-.4A51.38,51.38,0,0,1,391.06,421c3.44,1.42,6.28,2.6,9.35,5.23,4.82,4.14,6.76,8.95,8.13,12.46,2,5.1,3.62,9.26,2,14.08a15.19,15.19,0,0,1-5.28,7.23,16,16,0,0,1-7.32,2.82,17.51,17.51,0,0,1-9.35-1.61c-2.5-1.09-2.2-1.57-6.92-4a48,48,0,0,0-5.28-2.41,19.58,19.58,0,0,0-5.69-1.61,15.67,15.67,0,0,0-4.88.4c-2.84.66-3.92,1.64-9.35,4.82-3.57,2.09-5.38,3.14-6.92,3.62a19.57,19.57,0,0,1-8.13.81,14.82,14.82,0,0,1-6.91-2.42,12.49,12.49,0,0,1-4.88-6c-.65-1.82-.44-4.05,0-8.44C330.05,442,330.24,440.06,331.08,437.65Z"/><path class="cls-4" d="M338.9,462.36c0-.33,2.47-.32,6-1.66,2-.74,3.79-1.42,5.15-2.89.54-.58,1.59-1.92,2.15-7,.61-5.69-.39-6.92.43-11.59.51-2.95.8-4.6,2.14-6.2,2-2.36,4.78-2.87,9.87-3.73s9.69-1.62,14.59.42a11.63,11.63,0,0,1,5.58,4.13,11.88,11.88,0,0,1,1.72,5c.22,1.29.2,2.08,0,7s-.26,5.48,0,6.62a11.78,11.78,0,0,0,2.57,5.38c3.55,4,9.54,3.82,9.44,4.55-.06.43-2.26.6-4.29.41a19.21,19.21,0,0,1-7.08-2.27c-6.54-3.22-7.49-4.63-12-6.21a15.79,15.79,0,0,0-5.14-1.24c-3.47-.11-6.09,1.27-9.87,3.31-4.75,2.56-4.81,3.58-8.59,5a25.77,25.77,0,0,1-6.65,1.44C341.87,463,338.92,462.71,338.9,462.36Z"/><path class="cls-4" d="M357.14,458c-.24-.24.84-1.43,2.36-3.93a18.51,18.51,0,0,0,2.15-4.14,17.36,17.36,0,0,0,.43-5.79c-.08-2.29-.33-2.49,0-2.9,1.15-1.43,4.33,1.1,10.3.83,2.17-.1,4.05-.55,4.72.41.29.43.11.82,0,2.48a18.53,18.53,0,0,0,0,3.73s0,.08,0,.14a13,13,0,0,0,1.27,4c1.37,2.71,3,4.11,2.79,4.35s-1.79-1.25-4.72-2.48a16.9,16.9,0,0,0-4.29-1.25,16.69,16.69,0,0,0-6.44.42,22.63,22.63,0,0,0-5.57,2.48C358.35,457.4,357.36,458.22,357.14,458Z"/><path class="cls-11" d="M356.07,434.64a2.36,2.36,0,0,1,1.51-.55,7,7,0,0,0,4.07-2.76h0a60.88,60.88,0,0,1,8.58-.83,25.33,25.33,0,0,1,8.58,1.25c3.16,1.06,4,2.1,4.29,2.89a3.58,3.58,0,0,1,0,2.9c-.51.94-1.22.75-2.14,2.07a3.84,3.84,0,0,0-.86,2.06c0,.61.15.83,0,1.25-.22.59-.86.9-1.72,1.24-2.13.83-2.73.8-3.86,1.24-1.37.52-3.08,1.18-3.43,2.48a22.43,22.43,0,0,0,0,2.48c0,.74,0,1.28-.43,1.66a1.82,1.82,0,0,1-.86.41c-.35.09-1,.27-1.29,0s-.1-.6,0-1.65a5.13,5.13,0,0,0,0-2.07,3.51,3.51,0,0,0-1.28-1.66,5.62,5.62,0,0,0-1.72-.82,24.93,24.93,0,0,1-4.29-2.07c-1.27-.73-1.92-1.1-2.15-1.66s-.09-.84-.43-2.07a4.44,4.44,0,0,0-.43-1.24c-.62-1-1.52-.84-2.14-1.65A2.44,2.44,0,0,1,356.07,434.64Z"/><path class="cls-12" d="M359.07,437.12a4.33,4.33,0,0,1-1.71-1.65,5.57,5.57,0,0,1-.43-5.38c.68-1.28,1.88-1.82,4.29-2.9a21.48,21.48,0,0,1,5.58-1.65,18.71,18.71,0,0,1,6.43,0,15.62,15.62,0,0,1,7.73,3.72c1.13,1.06,2.08,2,2.14,3.31.09,1.87-1.59,3.31-2.57,4.14s-1.6,1.36-2.58,1.24a3.32,3.32,0,0,1-2.14-1.65,1.73,1.73,0,0,1-.43-1.25c.12-.6.71-.66.86-1.24a1.61,1.61,0,0,0-.86-1.65,2.26,2.26,0,0,0-2.58.83c-.71.93-.35,2.13,0,3.31a3.36,3.36,0,0,0,1.29,2.06,2.36,2.36,0,0,0,1.29.42c.55,0,.79-.27,1.72-.42.5-.08.76-.12.85,0,.25.31-.64,1.44-1.28,2.07-2.62,2.59-6.75,2.5-7.3,2.49a11,11,0,0,1-4.72-1.25c-1.58-.84-3.28-2.29-3-2.89.11-.25.56-.35.86-.42a4.85,4.85,0,0,1,1.28,0,5,5,0,0,0,1.29,0c.66-.2,1-.89,1.29-1.65a4.08,4.08,0,0,0,.43-2.48,2.62,2.62,0,0,0-.86-1.66,2.24,2.24,0,0,0-2.15-.41,1.51,1.51,0,0,0-.86.83,1.38,1.38,0,0,0,0,.82c.19.68.67.71.86,1.24a1.94,1.94,0,0,1-.43,1.66,2.62,2.62,0,0,1-1.71.83A4.21,4.21,0,0,1,359.07,437.12Z"/><path class="cls-1" d="M452.74,433.72a16.6,16.6,0,0,0-5.23-4.5,26.47,26.47,0,0,0-8.18-3.43,27.14,27.14,0,0,0-13.18.42c-3,.79-5.29,1.38-7.5,3.22-2,1.69-1.94,2.71-5.45,6.86-2.66,3.15-3,2.94-3.64,4.29-1.44,3.2-.87,7.72,1.82,9.87,1.64,1.3,2.46.44,6.36,1.71,5.3,1.72,5.48,3.87,8.64,3.86,3.31,0,4.24-2.38,7.27-1.71,1.76.38,1.9,1.29,4.09,1.71a8.76,8.76,0,0,0,5-.43c2.5-1.08,2.28-2.74,4.54-3.43,1.85-.57,2.39.43,4.55,0a8.43,8.43,0,0,0,5-3.43,7.86,7.86,0,0,0,.9-7.29c-.51-1.25-.91-1.08-2.72-3.86C453.59,435.41,453.61,435,452.74,433.72Z"/><path class="cls-2" d="M455.53,440.57a4.7,4.7,0,0,0-.88-1.29c-.73-.72-1.16-.6-1.78-1.28a4.89,4.89,0,0,1-.88-1.72,12.26,12.26,0,0,1-.44-1.71c-.25-.84-1.25-1.51-3.11-3A22.61,22.61,0,0,0,444.9,429a16.54,16.54,0,0,0-3.54-1.29,29.29,29.29,0,0,0-7.09-.85,25.59,25.59,0,0,0-8,.85,23.4,23.4,0,0,0-5.76,2.57c-2.19,1.37-3.34,2.08-4,3.43,0,0-.45.86-1.33,2.57a3.87,3.87,0,0,1-.89,1.29c-.65.57-1.09.46-1.77.85a4.51,4.51,0,0,0-1.77,2.57,7.54,7.54,0,0,0-.45,3,8.54,8.54,0,0,0,.89,3.86,4.77,4.77,0,0,0,2.21,2.57c.56.25.44,0,2.66.43.66.13,1.09.23,1.33,0s.08-.79,0-1.29c-.29-1.94,1.44-4,1.77-3.85.1,0,.07.24,0,1.28a12.66,12.66,0,0,0,0,3.43,4.8,4.8,0,0,0,1.78,2.14,8.22,8.22,0,0,0,2.21,1.29,11.41,11.41,0,0,0,3.55.86,7.38,7.38,0,0,0,3.54-.43,5.54,5.54,0,0,0,3.54-4.72c.33-2.18-.36-3.72,0-3.85s.69.51.89.85a4.25,4.25,0,0,1,.44,2.15,11,11,0,0,1,0,2.57c-.26,1.3-1.08,1.6-.88,2.14.12.33.55.62,2.65.86,2.58.29,3.86.43,5.32,0a6,6,0,0,0,4.87-6c.27-2.42-.4-4.15,0-4.29s.7.53.89.86a4.25,4.25,0,0,1,.44,2.57c-.11,2.68-.5,3.45,0,3.86s1,.18,1.78,0a7.14,7.14,0,0,0,2.65-1.29,8,8,0,0,0,2.66-2.57,6.64,6.64,0,0,0,.89-3.43A7.15,7.15,0,0,0,455.53,440.57Z"/><path class="cls-1" d="M286.19,434a16.6,16.6,0,0,1,5.23-4.5,26.37,26.37,0,0,1,8.18-3.43,27.12,27.12,0,0,1,13.18.43c3,.78,5.29,1.37,7.5,3.21,2,1.69,1.94,2.71,5.45,6.86,2.66,3.15,3,2.95,3.64,4.29,1.43,3.2.87,7.72-1.82,9.87-1.64,1.31-2.47.45-6.36,1.71-5.3,1.73-5.49,3.87-8.64,3.86-3.31,0-4.24-2.38-7.27-1.71-1.77.39-1.9,1.29-4.09,1.71a8.67,8.67,0,0,1-5-.43c-2.51-1.08-2.28-2.73-4.54-3.43-1.85-.56-2.39.43-4.55,0a8.43,8.43,0,0,1-5-3.43,7.86,7.86,0,0,1-.91-7.29c.52-1.25.92-1.08,2.73-3.86C285.33,435.68,285.31,435.23,286.19,434Z"/><path class="cls-2" d="M283.39,440.84a4.75,4.75,0,0,1,.89-1.29c.73-.72,1.15-.6,1.77-1.28a4.66,4.66,0,0,0,.89-1.72,13.47,13.47,0,0,0,.44-1.71c.25-.83,1.25-1.51,3.1-3a22.58,22.58,0,0,1,3.55-2.57,16.9,16.9,0,0,1,3.54-1.29,29.29,29.29,0,0,1,7.09-.85,25.86,25.86,0,0,1,8,.85,23.41,23.41,0,0,1,5.76,2.58c2.2,1.36,3.35,2.07,4,3.42l1.33,2.57a3.87,3.87,0,0,0,.89,1.29c.65.57,1.09.47,1.77.86a4.45,4.45,0,0,1,1.77,2.57,7.29,7.29,0,0,1,.44,3,8.36,8.36,0,0,1-.88,3.85,4.82,4.82,0,0,1-2.22,2.57c-.56.25-.43,0-2.66.43-.66.13-1.08.23-1.32,0s-.08-.79,0-1.28c.29-1.95-1.44-4-1.78-3.86-.09,0-.06.24,0,1.29a12.17,12.17,0,0,1,0,3.42,4.8,4.8,0,0,1-1.77,2.15,8.58,8.58,0,0,1-2.21,1.28,11.11,11.11,0,0,1-3.55.86,7.37,7.37,0,0,1-3.54-.43,5.89,5.89,0,0,1-2.66-2.14,6,6,0,0,1-.89-2.57c-.32-2.19.37-3.73,0-3.86s-.68.52-.88.86a4.29,4.29,0,0,0-.45,2.14,11.6,11.6,0,0,0,0,2.57c.27,1.3,1.08,1.61.89,2.14-.12.34-.55.62-2.66.86-2.57.29-3.86.43-5.31,0a6.8,6.8,0,0,1-3.55-2.14,6.92,6.92,0,0,1-1.33-3.86c-.26-2.42.41-4.15,0-4.28-.25-.09-.69.52-.88.85a4.32,4.32,0,0,0-.45,2.57c.12,2.68.5,3.45,0,3.86s-1,.18-1.77,0a7.16,7.16,0,0,1-2.66-1.29,8.08,8.08,0,0,1-2.66-2.57,6.69,6.69,0,0,1-.88-3.42A7.23,7.23,0,0,1,283.39,440.84Z"/><path class="cls-13" d="M468.7,218.51q-3.79-2.81-12.34-2.81a89,89,0,0,0-23.31,3.57q-13,3.58-20.33,8.34,2.83-14.3,2.83-19.05c0-1-.16-1.42-.49-1.37a3.81,3.81,0,0,0-1.05.69,60.8,60.8,0,0,1-32.34,14.29,118.71,118.71,0,0,1-15.16,1.19q-18.39,0-26.38-8.25-7.19-7.41-7.18-22.72a119.75,119.75,0,0,1,1.45-17.61q3-19,12.91-31.47,11.94-14.72,30.57-14.72,20.16,0,39.28,19.57,0-4.26-2.26-12a59.94,59.94,0,0,0-5.64-13.44q39.67-6.39,54.84-12.25a41,41,0,0,1,1.46,10.8c0,3-.33,4.76-1,5.44q-11.86,4.26-11.86,7.66v.17q0,2.8.24,8.85t.24,9.27q0,27.3-6.61,45.08a22.63,22.63,0,0,1,12.66-3.49,26.37,26.37,0,0,1,7.18.94ZM421.84,171q0-3.57-6.78-6-7.17-2.55-18.71-2.55a73.44,73.44,0,0,0-29,6q-13.55,5.88-13.55,11.83,0,4.77,9.6,7.65a72.36,72.36,0,0,0,20.49,2.56,54,54,0,0,0,26-6.81Q421.84,177.09,421.84,171Z"/><path class="cls-13" d="M871.17,181.27a49.12,49.12,0,0,1-.48,6.89q-2.34,16.26-22.83,25.27-18.95,8.41-47.83,8.42-19.75,0-32.26-5.79Q757,211.14,754.7,203.9a30.67,30.67,0,0,1-1.61-8.76q0-12.33,22.26-15.48a103.5,103.5,0,0,1,13.87-1q11.63,0,18.39,3.06t6.78,8.42q0,5.61-4.92,9.95-6.13,5.44-18.55,7.32c-4.95.74-7.42,1.84-7.42,3.32s4.35,2.38,13.06,2.38a71.4,71.4,0,0,0,9-.51q11.37-1.46,16.69-4.17,8.07-4,7.75-12-1-25.95-24.28-25.95-2.34,0-9.48.6t-10.12.59q-24.36,0-24.36-17.61a34.68,34.68,0,0,1,.73-7.48Q765.19,133,777.12,125q13.73-9.27,37.11-9.27,22.66,0,33.47,4.34,9.43,3.73,12.58,12.08a24.25,24.25,0,0,1,2,8.16q0,9.61-19.36,11-3.63.17-7.9.17-25.65,0-25.65-9.36,0-8.17,9-12.25,1.13-.51,13.39-3.66c1-.22,1.45-.62,1.45-1.19q0-3-12.5-3-23.79,0-23.79,15a24.42,24.42,0,0,0,1.29,7.49q3,9,9.35,12.59,5.25,3,14.44,3,3.15,0,10.16-.47t10.49-.47q13.54,0,20.33,4.34Q871.17,168.6,871.17,181.27Z"/><path class="cls-13" d="M662.87,417.41q0,12.49-7.54,20.11t-19.08,7.62q-17.5,0-33.23-16.76-6.54-7-15.49-21.95v3.83q0,21.78-7.9,34.11-9,13.86-26.78,13.87a64.07,64.07,0,0,1-18.47-3q-47.76-14.37-47.75-43.72,0-20.16,23.23-48a16.74,16.74,0,0,1-4.44.43,26.44,26.44,0,0,1-15.32-4.77l4.27-18.63q8.14,7.23,21.7,11.57a90.22,90.22,0,0,0,27.66,4.34,18.34,18.34,0,0,0,3.63-.25A113.15,113.15,0,0,0,532.93,383q-6.87,17.43-6.86,31.56a38.92,38.92,0,0,0,4.4,18.79q4.39,8.18,10.44,8.17,6.21,0,11.21-11.06,4.68-10.38,6.13-25.52a289.3,289.3,0,0,0,1.54-29.6q0-17-1.86-26.88,12.42-3,41.62-10.63.41,2.11,1.69,9.95-1.69.86-11,4.68-2.66,3.82-2.66,16.42v4.5q.74,7.23,9.44,22.72,10.65,19,20.49,19,5.88,0,5.88-8.93,0-9.85-6.77-26.88-6.3-15.73-12-22.71h56.78L656.9,364l-21,3.48Q662.87,393.67,662.87,417.41Z"/><path class="cls-13" d="M799.65,385.76q0,4.33-.32,10.2c0,.69-.27.94-.81.77q-13.71-3.23-44.93-8.59-27.74-4.68-29-4.68-1.86,0-1.86,16,0,20.16,8.39,30.11a22,22,0,0,0,16.37,8.09,23.4,23.4,0,0,0,10.41-1.79q1.86-.76,1.86-1.53c0-.34-.33-.62-1-.85q-10.57-2-17.26-8.3a19.69,19.69,0,0,1-6.7-14.92q0-5.44,5.85-8.81t15.93-3.36a75.86,75.86,0,0,1,14.68,1.53q20.81,4.26,20.81,17.61a17.21,17.21,0,0,1-1.94,7.66q-5.4,10.71-13.39,15.31-11.61,6.63-35.32,6.63-27.27,0-43.56-21.26a65.35,65.35,0,0,1-14-40.92q0-42.11,65.25-42.11,37.83,0,46.54,20Q799.65,371.64,799.65,385.76Zm-30.89-19.57q0-4.76-5.89-7.78t-15.57-3a77,77,0,0,0-19.6,2.21q-9.75,2.55-9.76,6.89,0,11,33.32,11Q768.75,375.46,768.76,366.19Z"/><path class="cls-13" d="M947,382.5q0,11.91-20.49,17.53A80.48,80.48,0,0,1,905,403.34q-17.5,0-17.5-10,0-11.4,9-19.31a43.33,43.33,0,0,1,18.23-9.1,1.31,1.31,0,0,0,1-1.45q0-1.95-4-4.17a22.27,22.27,0,0,0-10.65-2.47,30.52,30.52,0,0,0-19.28,6.47q-10.24,8-10.24,22.63,0,12.07,7.26,36.83.65,2.13,8.39,3.83a166.45,166.45,0,0,0,21.61,2.72q-1.12,5.35-2.74,12.93c-2.09-.11-5.19-.17-9.27-.17a280,280,0,0,0-73.32,9.78q-2.43-3.82-4-12.08a1.17,1.17,0,0,1,.88-1.36c6.46-2.83,9.73-4.25,9.84-4.25q4.27-2.38,4.52-5.7,1-8.94,2.1-17.78,1.85-17.18,1.85-26.63,0-10.2-2.18-11.82-2.65-2.13-7.74-2.13a44.56,44.56,0,0,0-6.61.86c-.86.16-1.29.05-1.29-.34,0-.86-.34-3.93-1-9.23s-1-8.27-1-8.89c0-.8.46-1.08,1.37-.85A50.5,50.5,0,0,0,834,353.58q17.1,0,35.66-13.1-1.05,6.72-2.67,17.44,12.91-12.76,35.9-12.76,31.22,0,41.13,24.75Q947,377.4,947,382.5Z"/><path class="cls-13" d="M310,169.75q0,28.35-8.89,59.74Q271.13,334,202.9,334q-28,0-51.91-17.72-13.43-10.11-32.48-32.9,12,79.72,43.92,166.81Q88,471,10.34,494.77A101.21,101.21,0,0,1,8.53,475q0-13.15,3.45-14.93,6.52-2.54,19.23-8.35,13.62-7.08,13.62-23c0-1.52-.07-3.12-.19-4.81q-10.51-111.37-10.52-179A950.25,950.25,0,0,1,43.92,107q-11.81,5.82-22,5.82Q8.9,112.8,0,105L3.27,41.16q50.8,35.7,102.35,35.7,16.34,0,52.72-5.07t55.08-5.06q49.91,0,74.77,30.88Q310,124.45,310,169.75Zm-41.56,12.41q0-19-22-30.13-21.22-10.87-56.08-10.88-38.3,0-69.14,20.25-29.76,19.24-29.76,41,0,13.67,26.31,24a134.43,134.43,0,0,0,50.27,9.62,145.82,145.82,0,0,0,66.79-16.2Q268.41,202.92,268.41,182.16Z"/><path class="cls-4" d="M628.07,98.07c-3.25,7.07-3.84,6.47-6.54,12.72s-4.07,9.39-4.33,13.83a22.5,22.5,0,0,0,4.27,15.6c5.37,7.07,13.64,9.07,16.23,9.59a31.52,31.52,0,0,0,18.21-1.66c7.49-3.14,11.15-8.37,13.47-11.69,5.9-8.44,6.34-16.55,6.63-21.92.56-10.57-2.42-18.32-4.61-23.83-2.91-7.34-5.23-13.18-11.86-17.92-2.44-1.75-9.61-6.89-17.31-4.88-.4.11-6.15,1.69-8.3,6-1.19,2.41-.47,4.06-.32,6.93C633.85,85.45,631.93,89.65,628.07,98.07Z"/><path class="cls-4" d="M631.48,35.61c1.08-.47,2.67.6,5.53,2.57a42.66,42.66,0,0,1,4.57,3.61c5.11,4.78,7.66,7.17,8.36,9.59.26.89,1.74,5.92-1.68,8.93s-9.69,2.58-12.6.1c-2.36-2-.37-3.7-2.7-10.72-1.06-3.21-2.21-5.07-2.51-8.9C630.31,39,630.12,36.21,631.48,35.61Z"/><path class="cls-4" d="M693,131.4c1.73-3.4,2.6-5.09,4.56-6.51,3.81-2.75,9.78-3,14.06-1.18,2.89,1.25,4.29,3.15,6.42,6.14a36.59,36.59,0,0,1,5.48,12.24c1.19,4.45,2.6,9.73,1.77,16.8a40.76,40.76,0,0,1-7,18.29c-3.13,4.37-8,11.12-17.43,14a30.74,30.74,0,0,1-15.71.45c-2.25-.53-9.59-2.27-14-8.48-3.62-5.07-3.27-10.28-3-13.89.44-6.7,3.31-11.55,5.26-14.87,2.59-4.37,4.42-7.48,8.39-10.17,3.61-2.45,5.67-2.3,7.87-5.06C691.48,136.82,690.77,135.77,693,131.4Z"/><path class="cls-4" d="M703.43,90.65c1.45-.66,4.8,3,5.66,3.93a25.43,25.43,0,0,1,6,12.17c.78,3.85,1.19,5.83-.28,7.39-2.1,2.24-7,2.47-9.9.7s-3.25-5.3-3.41-7.42c-.27-3.8,1.29-4.44,1.64-9.39C703.49,93.45,702.35,91.13,703.43,90.65Z"/><path class="cls-4" d="M594.3,181.55a31.35,31.35,0,0,1,9.9-5.76,45,45,0,0,1,17-2.91c5.72,0,11.51,0,17.12,3.06,4.59,2.51,7,5.93,10,10.32,4.35,6.28,3.29,7.89,7,11.6,2.64,2.65,3.84,2.49,11.75,6.9a116.92,116.92,0,0,1,15.77,10.11C688,219,691.49,221.66,694,226c5.12,8.77,2.9,17.91,2.2,20.89a33.05,33.05,0,0,1-13.09,20.38c-8.64,6.12-19.9,7.93-28.72,6.57s-10.25-5-20.52-5.41a39.73,39.73,0,0,0-15,2.21c-5.28,1.94-6,3.95-11.36,6.84a47.87,47.87,0,0,1-17.3,5.24c-3.28.35-14.71,1.44-25.71-4.81-2.44-1.39-10.6-6.18-14.27-15.81-4.15-10.91.32-20.6,1.72-23.64,4.76-10.31,14.28-17.51,15.4-18.35,3.67-2.72,6.22-3.84,9.19-7.51,1.05-1.29,1.85-2.53,6.12-11.75,3.33-7.18,3.62-8.09,5.18-10.72C590,186.43,591.47,184.06,594.3,181.55Z"/><path class="cls-4" d="M517.43,149.61c-4.44,2.88-6.23,6.71-8.71,12a54,54,0,0,0-3.62,10.54,45.6,45.6,0,0,0-1.78,13.08,37.9,37.9,0,0,0,3,13.89c1.62,3.7,4.57,10.23,12.1,15.14A26.42,26.42,0,0,0,530,218.94a29.7,29.7,0,0,0,17.5-3.42c11.21-5.85,14.29-16.42,15.25-19.71,1-3.48,3-10.19-.2-17-2.08-4.44-5.64-7.38-11.24-12s-7.17-4.55-10.34-8.44c-2.69-3.29-2.85-4.94-6-7.57-2-1.61-4.73-3.88-8.82-4A14.8,14.8,0,0,0,517.43,149.61Z"/><path class="cls-4" d="M518.23,112.28c-.57.56-2.53,2.21-4.42,7.87S511,128.66,511.27,131s.7,5.81,3.93,7.36a8.93,8.93,0,0,0,7.83-.46c4.43-2.49,4.3-8.18,4.28-9.23-.11-4.75-2.75-5.22-3.17-10.2-.47-5.53,2.53-8.94,1.07-9.78S520.3,110.27,518.23,112.28Z"/><path class="cls-4" d="M560.55,75.16c-4.18,2.5-6,5.72-9.75,12.17-2.88,5-6.54,11.49-7.81,20.68-1.19,8.67.37,15.2,1.58,20,1.87,7.49,3,12,7.52,16.59,5.79,5.84,13.19,7.67,16.09,8.24a32.67,32.67,0,0,0,15.71-.46,30.74,30.74,0,0,0,16.59-12c1.27-1.79,6.93-10.18,4.74-19.86-1.22-5.35-4.46-9.48-6.53-12.11-3.61-4.61-5-4.29-7.13-7.9C589,96.21,590,94.29,588,86.66c-1.86-7.13-2.79-10.7-5.53-12.69C577,70,567,71.31,560.55,75.16Z"/><path class="cls-4" d="M574,38.64c-1-.12-2.28,1.15-6,8.06-5.12,9.55-5.94,11.07-5.41,13.5.13.6,1.12,4.85,4.82,5.87,3.47,1,7.57-1.41,9.57-3.87,3.09-3.81,2.43-8.39,2-10.81-.17-1-.19-.53-2.27-6.63C575.09,39.8,574.85,38.74,574,38.64Z"/></svg>