<svg id="Layer_1" data-name="Layer 1" xmlns="http://www.w3.org/2000/svg" width="687.94" height="410.37" viewBox="0 0 687.94 410.37"><defs><style>.cls-1{fill:#fa982f;}.cls-2{fill:#c77926;}</style></defs><path class="cls-1" d="M456.25,67.55c-2.35,4.87-2.78,4.46-4.75,8.76s-2.95,6.47-3.14,9.53a14.85,14.85,0,0,0,3.1,10.74c3.9,4.87,9.91,6.26,11.79,6.61a24.11,24.11,0,0,0,13.23-1.14A21.47,21.47,0,0,0,486.27,94c4.28-5.81,4.6-11.39,4.81-15.09.41-7.29-1.76-12.62-3.34-16.42-2.12-5-3.81-9.08-8.62-12.34-1.78-1.21-7-4.74-12.58-3.36-.28.07-4.46,1.16-6,4.15-.87,1.66-.35,2.8-.24,4.78C460.46,58.86,459.06,61.76,456.25,67.55Z"/><path class="cls-1" d="M458.74,24.53c.78-.33,1.93.41,4,1.77a31,31,0,0,1,3.32,2.48c3.71,3.3,5.56,4.94,6.08,6.61.18.61,1.25,4.08-1.23,6.16s-7,1.77-9.15.06c-1.72-1.39-.27-2.55-2-7.38C459,32,458.2,30.74,458,28.1,457.88,26.83,457.75,24.94,458.74,24.53Z"/><path class="cls-1" d="M503.43,90.51c1.26-2.34,1.89-3.51,3.32-4.48,2.76-1.9,7.1-2.09,10.21-.82,2.09.86,3.11,2.18,4.66,4.24a24.56,24.56,0,0,1,4,8.42A25.79,25.79,0,0,1,521.8,122c-2.28,3-5.79,7.67-12.67,9.64a23.46,23.46,0,0,1-11.41.31c-1.63-.37-7-1.56-10.18-5.84-2.63-3.49-2.38-7.08-2.21-9.57a21.75,21.75,0,0,1,3.83-10.24c1.87-3,3.2-5.15,6.09-7,2.62-1.68,4.12-1.58,5.72-3.48C502.32,94.25,501.81,93.52,503.43,90.51Z"/><path class="cls-1" d="M511,62.44c1.06-.45,3.49,2.06,4.11,2.71a17.16,17.16,0,0,1,4.37,8.38c.57,2.66.86,4-.2,5.09-1.53,1.55-5.07,1.7-7.2.48s-2.36-3.64-2.47-5.11c-.2-2.61.93-3.06,1.19-6.46C511,64.37,510.22,62.78,511,62.44Z"/><path class="cls-1" d="M431.72,125.05a23.37,23.37,0,0,1,7.19-4,34.05,34.05,0,0,1,12.37-2c4.15,0,8.36,0,12.44,2.1,3.33,1.73,5.06,4.08,7.27,7.11,3.16,4.32,2.39,5.43,5.08,8,1.92,1.82,2.79,1.71,8.54,4.75a86.07,86.07,0,0,1,11.45,7c3.76,2.81,6.27,4.68,8.1,7.65,3.72,6,2.1,12.34,1.59,14.39a22.59,22.59,0,0,1-9.51,14,30.91,30.91,0,0,1-20.86,4.52c-6.32-.92-7.44-3.47-14.91-3.73a30,30,0,0,0-10.89,1.53c-3.83,1.33-4.34,2.72-8.25,4.71a36.5,36.5,0,0,1-12.57,3.61c-2.38.24-10.69,1-18.68-3.32-1.77-.95-7.7-4.25-10.36-10.88-3-7.52.23-14.19,1.25-16.29,3.45-7.1,10.37-12.06,11.19-12.64,2.66-1.87,4.51-2.64,6.67-5.17.76-.89,1.34-1.75,4.45-8.09,2.42-5,2.62-5.58,3.76-7.39A22.18,22.18,0,0,1,431.72,125.05Z"/><path class="cls-1" d="M375.88,103.05c-3.23,2-4.52,4.63-6.33,8.31a36.27,36.27,0,0,0-2.63,7.25,30.28,30.28,0,0,0-1.29,9,24.9,24.9,0,0,0,2.21,9.57,22.31,22.31,0,0,0,8.78,10.43,19.67,19.67,0,0,0,8.37,3.19,22.46,22.46,0,0,0,12.7-2.36,21.5,21.5,0,0,0,11.09-13.57c.74-2.4,2.16-7-.15-11.7-1.51-3.07-4.1-5.09-8.17-8.28s-5.2-3.14-7.51-5.82c-1.95-2.27-2.06-3.4-4.39-5.21a10.74,10.74,0,0,0-6.41-2.78A11.23,11.23,0,0,0,375.88,103.05Z"/><path class="cls-1" d="M376.47,77.34c-.42.39-1.85,1.53-3.22,5.42s-2,5.87-1.84,7.49.51,4,2.85,5.07A6.81,6.81,0,0,0,380,95c3.22-1.72,3.13-5.63,3.11-6.36-.08-3.27-2-3.59-2.31-7-.34-3.81,1.85-6.16.78-6.74S378,76,376.47,77.34Z"/><path class="cls-1" d="M407.2,51.77c-3,1.72-4.38,3.94-7.08,8.38-2.09,3.44-4.75,7.92-5.67,14.25a32.35,32.35,0,0,0,1.15,13.8c1.36,5.16,2.19,8.3,5.46,11.43a23.46,23.46,0,0,0,11.69,5.67,25,25,0,0,0,11.41-.31,22.2,22.2,0,0,0,12-8.3c.93-1.24,5-7,3.44-13.68-.88-3.69-3.23-6.53-4.73-8.34-2.63-3.18-3.61-3-5.18-5.45-1.87-3-1.14-4.27-2.59-9.53-1.35-4.91-2-7.36-4-8.73C419.15,48.22,411.87,49.12,407.2,51.77Z"/><path class="cls-1" d="M417,26.62c-.72-.09-1.66.79-4.35,5.55-3.72,6.58-4.31,7.62-3.93,9.3.1.41.82,3.34,3.5,4,2.53.67,5.5-1,6.95-2.67,2.25-2.62,1.77-5.77,1.47-7.44-.13-.7-.14-.36-1.65-4.57C417.77,27.42,417.6,26.69,417,26.62Z"/><path class="cls-2" d="M340.48,150.51q-2.75-1.94-9-1.93A67.91,67.91,0,0,0,314.58,151q-9.43,2.46-14.76,5.74,2.06-9.84,2.05-13.12c0-.67-.12-1-.35-.94a2.43,2.43,0,0,0-.76.47,45.32,45.32,0,0,1-23.5,9.84,89.8,89.8,0,0,1-11,.82q-13.35,0-19.16-5.68-5.21-5.1-5.21-15.65a78,78,0,0,1,1-12.13q2.18-13.12,9.38-21.68a27.92,27.92,0,0,1,22.21-10.13q14.64,0,28.53,13.47a30.64,30.64,0,0,0-1.64-8.26,40.07,40.07,0,0,0-4.1-9.26q28.83-4.4,39.84-8.43a26.7,26.7,0,0,1,1.06,7.44c0,2-.24,3.28-.71,3.75q-8.61,2.92-8.61,5.27v.12q0,1.93.18,6.09t.17,6.39q0,18.81-4.8,31.05a17.09,17.09,0,0,1,9.2-2.4,20,20,0,0,1,5.21.65Zm-34-32.75q0-2.46-4.92-4.1a43.29,43.29,0,0,0-13.6-1.76,55.81,55.81,0,0,0-21.09,4.1q-9.84,4-9.84,8.14,0,3.28,7,5.28a55.61,55.61,0,0,0,14.88,1.76,41.06,41.06,0,0,0,18.93-4.69Q306.44,122,306.44,117.76Z"/><path class="cls-2" d="M632.86,124.86a31.16,31.16,0,0,1-.36,4.75q-1.69,11.19-16.58,17.4-13.77,5.81-34.74,5.8-14.35,0-23.44-4-7.8-3.41-9.49-8.38a19.77,19.77,0,0,1-1.18-6q0-8.49,16.18-10.66a78.79,78.79,0,0,1,10.07-.7q8.45,0,13.36,2.11c3.28,1.4,4.93,3.34,4.93,5.8a8.78,8.78,0,0,1-3.58,6.85q-4.46,3.75-13.48,5-5.38.77-5.39,2.29t9.5,1.64a55.51,55.51,0,0,0,6.56-.35q8.26-1,12.13-2.87,5.85-2.76,5.62-8.27-.76-17.86-17.63-17.87c-1.14,0-3.43.14-6.89.41s-5.91.41-7.35.41q-17.7,0-17.7-12.13a23,23,0,0,1,.53-5.15q1.94-9.31,10.61-14.89,10-6.37,27-6.38,16.46,0,24.31,3c4.58,1.72,7.62,4.49,9.15,8.32a16.14,16.14,0,0,1,1.46,5.62q0,6.63-14.06,7.56c-1.76.08-3.67.12-5.74.12Q588,104.3,588,97.85q0-5.62,6.51-8.44c.54-.23,3.79-1.07,9.72-2.51.71-.16,1.06-.43,1.06-.83,0-1.36-3-2-9.08-2q-17.29,0-17.29,10.32a15.86,15.86,0,0,0,.94,5.15q2.16,6.21,6.79,8.67,3.81,2.06,10.49,2.06,2.29,0,7.39-.33t7.61-.32q9.85,0,14.77,3Q632.85,116.13,632.86,124.86Z"/><path class="cls-2" d="M423.53,277.52q0,8.61-5.48,13.85a19.21,19.21,0,0,1-13.85,5.25q-12.72,0-24.14-11.55-4.76-4.8-11.25-15.11v2.63q0,15-5.75,23.5-6.49,9.56-19.45,9.55a48.7,48.7,0,0,1-13.42-2.05q-34.68-9.9-34.68-30.12,0-13.89,16.87-33a13.3,13.3,0,0,1-3.22.29A20,20,0,0,1,298,237.44l3.1-12.83q5.92,5,15.76,8a68.59,68.59,0,0,0,20.1,3,14.84,14.84,0,0,0,2.64-.17,76.49,76.49,0,0,0-10.49,18.4q-5,12-5,21.73a25.74,25.74,0,0,0,3.19,13q3.19,5.63,7.59,5.63t8.14-7.62a53.58,53.58,0,0,0,4.46-17.58,189.22,189.22,0,0,0,1.11-20.39A99.57,99.57,0,0,0,347.3,230q9-2.06,30.24-7.33c.19,1,.6,3.26,1.23,6.86q-1.23.58-8,3.22-1.94,2.64-1.93,11.31v3.1q.53,5,6.85,15.65,7.74,13.06,14.88,13.07c2.86,0,4.28-2.06,4.28-6.16q0-6.8-4.92-18.51-4.57-10.85-8.73-15.65h41.25l-3.22,5.16L404,243.12Q423.54,261.17,423.53,277.52Z"/><path class="cls-2" d="M522.9,255.71c0,2-.08,4.34-.24,7,0,.46-.19.64-.58.52q-10-2.22-32.64-5.91-20.16-3.23-21.09-3.23-1.35,0-1.35,11,0,13.89,6.09,20.74a16.32,16.32,0,0,0,11.9,5.57,18.07,18.07,0,0,0,7.56-1.23c.9-.35,1.34-.71,1.34-1.06s-.23-.43-.7-.58a25.38,25.38,0,0,1-12.54-5.72,13.29,13.29,0,0,1-4.86-10.28q0-3.75,4.25-6.06t11.57-2.32a57.34,57.34,0,0,1,10.66,1.06q15.12,2.93,15.12,12.12a11.36,11.36,0,0,1-1.41,5.28q-3.91,7.38-9.72,10.54-8.44,4.57-25.67,4.58-19.8,0-31.64-14.65A43.57,43.57,0,0,1,438.82,255q0-29,47.4-29,27.48,0,33.81,13.77Q522.9,246,522.9,255.71Zm-22.44-13.47q0-3.28-4.28-5.36t-11.31-2.08a58.52,58.52,0,0,0-14.24,1.52c-4.72,1.17-7.09,2.75-7.09,4.75q0,7.56,24.2,7.55Q500.46,248.62,500.46,242.24Z"/><path class="cls-2" d="M629.91,253.47q0,8.21-14.88,12.07a61.08,61.08,0,0,1-15.58,2.29q-12.72,0-12.72-6.91,0-7.86,6.56-13.3a31.92,31.92,0,0,1,13.25-6.27.91.91,0,0,0,.7-1c0-.9-1-1.86-2.93-2.87a16.9,16.9,0,0,0-7.74-1.7,22.93,22.93,0,0,0-14,4.45q-7.44,5.51-7.44,15.59,0,8.32,5.27,25.37c.31,1,2.35,1.85,6.1,2.64a127.75,127.75,0,0,0,15.7,1.87q-.83,3.69-2,8.91c-1.53-.08-3.77-.12-6.74-.12a213.93,213.93,0,0,0-53.26,6.74,24.52,24.52,0,0,1-2.93-8.32c-.08-.43.13-.74.64-.94q7-2.93,7.15-2.93,3.1-1.64,3.28-3.92.76-6.17,1.53-12.25a175.46,175.46,0,0,0,1.34-18.34c0-4.69-.52-7.4-1.58-8.15a9.23,9.23,0,0,0-5.62-1.46,34.56,34.56,0,0,0-4.81.59c-.62.11-.94,0-.94-.24q0-.87-.73-6.36t-.73-6.12c0-.55.33-.74,1-.58a38.77,38.77,0,0,0,10.08,1.34q12.42,0,25.9-9-.76,4.64-1.93,12,9.38-8.79,26.07-8.79,22.68,0,29.88,17.05A23.79,23.79,0,0,1,629.91,253.47Z"/><path class="cls-2" d="M225.17,116.93a143.64,143.64,0,0,1-6.46,41.15q-21.75,72-71.32,72a64.33,64.33,0,0,1-37.7-12.21q-9.76-7-23.6-22.66,8.7,54.92,31.9,114.9-54,14.29-110.48,30.68A66,66,0,0,1,6.2,327.2q0-9.06,2.5-10.28,4.75-1.76,14-5.76,9.88-4.87,9.88-15.86c0-1.05,0-2.15-.13-3.32q-7.65-76.71-7.64-123.27a621.78,621.78,0,0,1,7.11-95A37.91,37.91,0,0,1,16,77.7Q6.45,77.7,0,72.29L2.37,28.35Q39.28,52.94,76.73,52.94q11.86,0,38.3-3.49T155,46q36.26,0,54.31,21.28Q225.18,85.72,225.17,116.93ZM195,125.47q0-13.08-15.95-20.75-15.42-7.48-40.74-7.49-27.81,0-50.22,13.94-21.63,13.26-21.62,28.25,0,9.42,19.11,16.56a102.4,102.4,0,0,0,36.52,6.63,110.57,110.57,0,0,0,48.51-11.16Q195,139.78,195,125.47Z"/><path class="cls-2" d="M281.88,251.73a84.3,84.3,0,0,1-1.41,14q-2.46,14.52-10.83,24.24-10.83,12.54-28.85,12.55A46.56,46.56,0,0,1,211.19,292q-14-11.08-14-26.58,0-12.18,10.46-23.13,11.87-12.44,30.88-14.83a119,119,0,0,1,14.09-.74q16,0,23,6.52Q281.88,239.18,281.88,251.73Zm-10.58,8.92q0-4.74-7.87-7.44-7.14-2.4-18.34-2.4a47,47,0,0,0-23.93,6.76q-10.95,6.4-10.95,12.13,0,3.93,7,6.58a48.57,48.57,0,0,0,17,2.64,56,56,0,0,0,24.86-6Q271.3,267,271.3,260.65Z"/></svg>