<svg id="Layer_1" data-name="Layer 1" xmlns="http://www.w3.org/2000/svg" width="1920" height="1080" viewBox="0 0 1920 1080"><defs><style>.cls-1{fill:#f27052;}.cls-2{fill:#343440;}</style></defs><path class="cls-1" d="M1369.19,178.27c-7.07,14.62-8.36,13.37-14.26,26.29s-8.87,19.42-9.43,28.6c-.33,5.54-1.16,19.17,9.3,32.23,11.71,14.62,29.74,18.76,35.39,19.83,4.5.86,21.33,3.84,39.69-3.44,16.33-6.48,24.31-17.29,29.37-24.16,12.87-17.45,13.82-34.21,14.45-45.31,1.23-21.86-5.27-37.88-10-49.26-6.35-15.16-11.41-27.25-25.85-37-5.34-3.63-21-14.23-37.75-10.08-.86.22-13.39,3.48-18.08,12.46-2.6,5-1,8.39-.7,14.33C1381.81,152.17,1377.6,160.87,1369.19,178.27Z"/><path class="cls-1" d="M1376.64,49.16c2.34-1,5.81,1.24,12,5.32a94.79,94.79,0,0,1,10,7.44c11.12,9.89,16.68,14.83,18.22,19.84.56,1.83,3.78,12.24-3.68,18.46-7.22,6-21.11,5.34-27.45.19-5.15-4.18-.81-7.64-5.89-22.15-2.32-6.63-4.82-10.47-5.47-18.4C1374.08,56.06,1373.67,50.39,1376.64,49.16Z"/><path class="cls-1" d="M1510.76,247.16c3.78-7,5.67-10.53,10-13.45,8.31-5.68,21.32-6.26,30.64-2.45,6.3,2.58,9.36,6.53,14,12.71,3.3,4.39,8.22,12,12,25.28,2.59,9.21,5.66,20.13,3.85,34.73a81.8,81.8,0,0,1-15.28,37.81c-6.83,9-17.36,23-38,28.91a70.34,70.34,0,0,1-34.24.94c-4.91-1.1-20.9-4.7-30.56-17.52-7.89-10.48-7.13-21.26-6.61-28.72,1-13.84,7.21-23.87,11.48-30.73,5.62-9.05,9.62-15.47,18.27-21,7.88-5.06,12.36-4.76,17.16-10.45C1507.43,258.37,1505.89,256.19,1510.76,247.16Z"/><path class="cls-1" d="M1533.48,162.92c3.17-1.36,10.46,6.19,12.35,8.14a51.65,51.65,0,0,1,13.09,25.16c1.71,8,2.59,12-.6,15.27-4.59,4.63-15.21,5.1-21.59,1.44-6.54-3.75-7.09-10.94-7.42-15.33-.6-7.86,2.79-9.18,3.57-19.41C1533.6,168.72,1531.13,163.93,1533.48,162.92Z"/><path class="cls-1" d="M1295.57,350.82c8-6.77,16.29-9.92,21.58-11.89,15.78-5.88,29.51-6,37.11-6,12.47,0,25.1,0,37.34,6.31,10,5.19,15.17,12.25,21.82,21.34,9.48,13,7.18,16.3,15.25,24,5.75,5.48,8.36,5.14,25.62,14.27,9,4.75,21.87,11.57,34.36,20.9,11.29,8.43,18.8,14,24.3,23,11.16,18.11,6.31,37,4.78,43.18-1.81,7.29-6.84,27.56-28.53,42.12-18.83,12.64-43.39,16.39-62.6,13.59-19-2.78-22.35-10.43-44.74-11.2a90.78,90.78,0,0,0-32.7,4.57c-11.5,4-13,8.17-24.76,14.14a108.6,108.6,0,0,1-37.72,10.83c-7.15.74-32.08,3-56-9.94-5.31-2.87-23.11-12.78-31.09-32.67-9.06-22.56.68-42.59,3.74-48.88,10.37-21.31,31.12-36.2,33.58-37.93,8-5.62,13.55-7.93,20-15.52,2.27-2.66,4-5.24,13.34-24.28,7.26-14.86,7.88-16.74,11.28-22.16C1286.28,360.92,1289.41,356,1295.57,350.82Z"/><path class="cls-1" d="M1128,284.81c-9.69,6-13.57,13.86-19,24.91a108.69,108.69,0,0,0-7.89,21.78c-2,7.59-4.19,16.06-3.87,27a74.8,74.8,0,0,0,6.62,28.73c3.51,7.63,10,21.14,26.36,31.29,5.35,3.31,13.21,8.05,25.1,9.57,18.54,2.37,33.55-4.81,38.13-7.07,24.46-12.09,31.18-33.94,33.27-40.75,2.21-7.19,6.47-21.06-.46-35.11-4.53-9.19-12.28-15.26-24.5-24.84-11.94-9.36-15.62-9.42-22.54-17.46-5.85-6.8-6.19-10.21-13.18-15.65-4.28-3.33-10.32-8-19.24-8.32C1138,278.63,1131.3,282.77,1128,284.81Z"/><path class="cls-1" d="M1129.75,207.64c-1.26,1.16-5.53,4.58-9.64,16.27s-6.15,17.6-5.53,22.47c.59,4.62,1.52,12,8.55,15.21,5.29,2.4,12.26,1.62,17.07-.94,9.67-5.16,9.39-16.92,9.34-19.09-.24-9.81-6-10.8-6.92-21.09-1-11.42,5.53-18.47,2.34-20.22C1142,198.64,1134.26,203.48,1129.75,207.64Z"/><path class="cls-1" d="M1222,130.9c-9.1,5.17-13.15,11.84-21.25,25.17-6.27,10.31-14.26,23.74-17,42.74-2.6,17.93.81,31.43,3.45,41.43,4.08,15.47,6.56,24.91,16.39,34.3,12.62,12.06,28.76,15.85,35.08,17a75.1,75.1,0,0,0,34.24-.94A66.64,66.64,0,0,0,1309,265.7c2.78-3.7,15.12-21,10.34-41-2.65-11.06-9.72-19.6-14.22-25-7.89-9.53-10.82-8.86-15.55-16.34-5.61-8.87-3.41-12.83-7.75-28.6-4-14.74-6.08-22.11-12.06-26.22C1257.85,120.25,1236,123,1222,130.9Z"/><path class="cls-1" d="M1251.41,55.43c-2.14-.26-5,2.37-13,16.64C1227.21,91.83,1225.43,95,1226.58,100c.28,1.23,2.45,10,10.5,12.14,7.58,2,16.51-2.93,20.87-8,6.74-7.87,5.3-17.34,4.39-22.35-.38-2.09-.42-1.08-4.95-13.7C1253.7,57.82,1253.19,55.64,1251.41,55.43Z"/><path class="cls-2" d="M1021.77,427.22q-8.26-5.81-26.9-5.8-22.51,0-50.82,7.38T899.74,446q6.15-29.55,6.15-39.39,0-3-1-2.82a8,8,0,0,0-2.29,1.41Q873,429.51,832,434.78A271.27,271.27,0,0,1,799,437.24q-40.08,0-57.49-17.05-15.66-15.3-15.65-46.95a232.86,232.86,0,0,1,3.16-36.4q6.51-39.39,28.14-65.06,26-30.42,66.64-30.42,44,0,85.63,40.44,0-8.79-4.92-24.79Q899,240,892.18,229.23q86.51-13.18,119.57-25.32a80.89,80.89,0,0,1,3.16,22.33q0,9.15-2.11,11.25Q987,246.3,987,253.32v.35q0,5.81.53,18.29t.53,19.16q0,56.44-14.42,93.2,11.61-7.21,27.61-7.21a60.29,60.29,0,0,1,15.65,1.93ZM919.61,328.93q0-7.38-14.77-12.31-15.66-5.28-40.8-5.28a167.33,167.33,0,0,0-63.3,12.31q-29.54,12.14-29.54,24.44,0,9.86,20.93,15.83,18.81,5.28,44.66,5.28a122.94,122.94,0,0,0,56.79-14.07Q919.6,341.59,919.61,328.93Z"/><path class="cls-2" d="M1899.16,350.25a96.4,96.4,0,0,1-1.05,14.25q-5.11,33.58-49.77,52.22-41.33,17.4-104.27,17.41-43.08,0-70.33-12Q1650.36,412,1645.25,397q-3.51-10.72-3.51-18.11,0-25.5,48.53-32a238.64,238.64,0,0,1,30.24-2.11q25.32,0,40.09,6.33t14.77,17.41q0,11.61-10.72,20.57-13.37,11.26-40.45,15.13-16.17,2.28-16.17,6.85,0,4.92,28.48,4.93a164.37,164.37,0,0,0,19.7-1.06q24.78-3,36.39-8.61,17.58-8.27,16.88-24.8-2.28-53.62-52.92-53.63-5.1,0-20.66,1.23t-22.07,1.23q-53.1,0-53.1-36.39a68.77,68.77,0,0,1,1.58-15.48q5.81-28,31.83-44.66Q1724,214.68,1775,214.68q49.41,0,73,9,20.58,7.74,27.43,25,4.39,10.73,4.4,16.88,0,19.88-42.2,22.68-7.92.36-17.23.36-55.92,0-55.92-19.35,0-16.87,19.52-25.32,2.46-1.05,29.19-7.56c2.11-.47,3.16-1.29,3.16-2.46q0-6.15-27.25-6.15-51.88,0-51.88,30.94a48.08,48.08,0,0,0,2.82,15.48q6.49,18.63,20.4,26,11.41,6.17,31.47,6.15,6.86,0,22.16-1t22.85-1q29.55,0,44.32,9Q1899.16,324.06,1899.16,350.25Z"/><path class="cls-2" d="M1271,808.35q0,25.85-16.44,41.59T1213,865.68q-38.16,0-72.44-34.64-14.25-14.41-33.76-45.37v7.91q0,45-17.24,70.51-19.52,28.67-58.37,28.66a146.44,146.44,0,0,1-40.27-6.15q-104.1-29.72-104.1-90.38,0-41.67,50.65-99.17a38.93,38.93,0,0,1-9.68.88,59.88,59.88,0,0,1-33.4-9.85l9.32-38.51q17.75,15,47.3,23.92a206.73,206.73,0,0,0,60.31,9,42.25,42.25,0,0,0,7.91-.52q-18.29,23.21-31.48,55.21-14.94,36-14.94,65.24,0,22,9.58,38.85t22.77,16.88q13.54,0,24.44-22.85,10.2-21.45,13.37-52.76a568.18,568.18,0,0,0,3.34-61.19q0-35.16-4-55.56,27.09-6.15,90.74-22,.87,4.4,3.69,20.57-3.69,1.77-24.09,9.67-5.8,7.92-5.8,33.94v9.32q1.57,14.94,20.57,47,23.21,39.21,44.66,39.21,12.84,0,12.84-18.46,0-20.4-14.77-55.57-13.72-32.52-26.2-46.95h123.79L1258,697.93l-45.72,7.21Q1271,759.29,1271,808.35Z"/><path class="cls-2" d="M1569.19,742.93q0,9-.71,21.1c0,1.41-.58,1.93-1.75,1.58q-29.89-6.68-97.94-17.76-60.49-9.66-63.31-9.67-4,0-4,33.06,0,41.67,18.29,62.24,13.89,15.66,35.69,16.71a53.51,53.51,0,0,0,22.68-3.69c2.7-1.06,4.05-2.11,4.05-3.17,0-.7-.7-1.29-2.11-1.76q-23-4.22-37.63-17.14t-14.59-30.86q0-11.25,12.74-18.2t34.73-7a173.89,173.89,0,0,1,32,3.17q45.38,8.79,45.37,36.4a34.08,34.08,0,0,1-4.22,15.82q-11.79,22.16-29.19,31.65-25.32,13.72-77,13.72-59.43,0-95-44-30.42-37.46-30.42-84.58,0-87,142.25-87,82.47,0,101.46,41.33Q1569.18,713.74,1569.19,742.93Zm-67.35-40.44q0-9.86-12.83-16.09t-33.94-6.24q-24.61,0-42.73,4.57Q1391.07,690,1391.07,699q0,22.68,72.62,22.68Q1501.83,721.65,1501.84,702.49Z"/><path class="cls-2" d="M1890.33,736.21q0,24.62-44.66,36.22-25.85,6.86-46.77,6.86-38.16,0-38.16-20.75,0-23.56,19.7-39.92,15.64-13,39.73-18.81a2.71,2.71,0,0,0,2.12-3q0-4.05-8.8-8.62-10-5.1-23.21-5.1-23.91,0-42,13.37-22.34,16.53-22.33,46.77,0,25,15.82,76.14,1.41,4.39,18.29,7.91,18.63,3.69,47.12,5.63-2.46,11.07-6,26.72-6.86-.35-20.22-.35a641.71,641.71,0,0,0-159.83,20.22q-5.28-7.9-8.79-25c-.24-1.28.41-2.22,1.93-2.81q21.11-8.79,21.45-8.79,9.32-4.92,9.85-11.78,2.28-18.46,4.57-36.75,4-35.52,4-55,0-21.11-4.75-24.44-5.81-4.39-16.88-4.4a102.76,102.76,0,0,0-14.42,1.76c-1.88.35-2.81.12-2.81-.7q0-2.64-2.2-19.08t-2.2-18.37c0-1.64,1-2.23,3-1.76a115.08,115.08,0,0,0,30.24,4q37.27,0,77.72-27.08-2.28,13.9-5.8,36Q1744.21,659,1794.33,659q68,0,89.67,51.17Q1890.33,725.66,1890.33,736.21Z"/><path class="cls-2" d="M675.74,326.44q0,58.6-19.39,123.49Q591.07,666,442.31,666q-60.93,0-113.15-36.62-29.28-20.92-70.81-68,26.1,164.8,95.74,344.81-162.21,42.9-331.54,92.09a198.41,198.41,0,0,1-3.95-40.82q0-27.21,7.51-30.87,14.25-5.24,41.94-17.26,29.67-14.64,29.67-47.62,0-4.71-.39-9.94-23-230.22-23-369.93,0-147,21.36-285.16-25.71,12-47.87,12-28.48,0-47.87-16.22L7.12,60.64q110.78,73.77,223.14,73.77,35.61,0,114.93-10.46t120.07-10.47q108.79,0,163,63.84Q675.73,232.79,675.74,326.44Zm-90.6,25.64q0-39.24-47.87-62.26Q491,267.32,415,267.32q-83.49,0-150.74,41.86-64.89,39.76-64.88,84.76,0,28.26,57.36,49.71a307.38,307.38,0,0,0,109.59,19.88q76,0,145.6-33.49Q585.14,395,585.14,352.08Z"/><path class="cls-2" d="M845.92,731q0,17.35-4.25,41.91-7.38,43.57-32.5,72.74-32.49,37.67-86.59,37.67-49.11,0-88.8-31.39-41.92-33.23-41.91-79.76,0-36.55,31.38-69.42,35.64-37.29,92.69-44.49A354.78,354.78,0,0,1,758.22,656q48,0,68.86,19.58Q845.92,693.31,845.92,731Zm-31.76,26.77q0-14.21-23.63-22.34-21.42-7.2-55-7.2-36.93,0-71.82,20.31-32.87,19.2-32.87,36.38,0,11.8,21,19.75T703,812.58q38,0,74.59-17.91T814.16,757.74Z"/></svg>